<svg width="32" height="32" viewBox="0 0 512 512" fill="none" xmlns="http://www.w3.org/2000/svg">
<path d="M469.115 328.12C459.235 387.78 417.815 416.28 366.515 416.28C334.975 416.28 311.035 405.64 291.275 385.88C262.775 357.38 263.915 319.38 263.915 278.72C263.915 238.06 262.775 200.06 291.275 171.56C311.035 151.8 334.975 141.16 366.515 141.16C417.815 141.16 459.235 169.66 469.115 229.32H401.475C397.295 214.12 388.935 200.44 366.895 200.44C354.735 200.44 345.615 205.38 340.675 211.84C334.595 219.82 330.415 229.32 330.415 278.72C330.415 328.12 334.595 337.62 340.675 345.6C345.615 352.06 354.735 357 366.895 357C388.935 357 397.295 343.32 401.475 328.12H469.115Z" fill="#4270ED"/>
<path d="M226.803 331.92C226.803 387.78 184.623 416.28 139.783 416.28C94.9426 416.28 52.7626 387.78 52.7626 331.92V225.52C52.7626 169.66 94.9426 141.16 139.783 141.16C184.623 141.16 226.803 169.66 226.803 225.52V331.92ZM164.483 332.3V225.52C164.483 206.52 153.083 197.4 139.783 197.4C126.483 197.4 115.083 206.52 115.083 225.52V332.3C115.083 351.3 126.483 360.04 139.783 360.04C153.083 360.04 164.483 351.3 164.483 332.3Z" fill="#4270ED"/>
<path d="M330.415 278.72C330.415 229.32 334.595 219.82 340.675 211.84C345.615 205.38 354.735 200.441 366.895 200.44L367.918 200.45C388.519 200.855 396.828 213.514 401.07 227.899L401.475 229.32H469.115C459.312 170.127 418.46 141.607 367.716 141.165L366.515 141.16C334.975 141.16 311.035 151.8 291.275 171.56L290.612 172.229C262.793 200.654 263.915 238.377 263.915 278.72L263.909 286.311C263.888 324.093 264.557 359.161 291.275 385.88C310.727 405.331 334.228 415.946 365.042 416.272L366.515 416.28C417.815 416.28 459.235 387.78 469.115 328.12H401.475C397.295 343.32 388.934 357 366.895 357V356C377.685 356 385.021 352.661 390.179 347.55C395.367 342.408 398.441 335.381 400.511 327.854L400.713 327.12H470.294L470.102 328.283C465.128 358.318 452.196 380.592 433.977 395.35C415.764 410.102 392.349 417.28 366.515 417.28C334.71 417.28 310.515 406.535 290.567 386.587C261.72 357.739 262.915 319.259 262.915 278.72C262.915 238.181 261.719 199.701 290.567 170.853C310.515 150.905 334.71 140.16 366.515 140.16C392.349 140.16 415.764 147.338 433.977 162.091C452.196 176.849 465.128 199.121 470.102 229.156L470.294 230.32H400.713L400.511 229.585C398.441 222.058 395.367 215.033 390.179 209.891C385.021 204.779 377.685 201.44 366.895 201.44C355.008 201.441 346.198 206.263 341.47 212.445C335.616 220.128 331.415 229.304 331.415 278.72C331.415 328.132 335.617 337.31 341.47 344.992L341.925 345.568C346.751 351.472 355.378 356 366.895 356V357L365.764 356.985C354.169 356.689 345.46 351.858 340.675 345.6C334.785 337.869 330.678 328.712 330.427 283.235L330.415 278.72Z" fill="#4270ED"/>
<path d="M226.803 225.52C226.803 170.096 185.279 141.607 140.833 141.165L139.782 141.16C94.9425 141.16 52.7629 169.66 52.7627 225.52V331.92L52.7705 333.225C53.4171 387.791 94.6363 415.836 138.732 416.274L139.782 416.28C184.272 416.28 226.143 388.224 226.795 333.225L226.803 331.92V225.52ZM163.482 332.3V225.52C163.482 216.223 160.698 209.463 156.402 205.031C152.104 200.598 146.202 198.4 139.782 198.4C133.363 198.4 127.461 200.598 123.163 205.031C118.868 209.463 116.083 216.223 116.083 225.52V332.3C116.083 341.596 118.867 348.258 123.156 352.592C127.449 356.93 133.351 359.04 139.782 359.04V360.04L139.16 360.033C126.336 359.768 115.434 351.279 115.091 333.184L115.083 332.3V225.52C115.083 206.52 126.482 197.401 139.782 197.4L140.404 197.406C153.436 197.687 164.482 206.817 164.482 225.52V332.3C164.482 351.3 153.082 360.04 139.782 360.04V359.04C146.214 359.04 152.116 356.93 156.409 352.592C160.698 348.258 163.482 341.596 163.482 332.3ZM227.803 331.92C227.803 360.124 217.144 381.494 200.766 395.801C184.406 410.091 162.405 417.28 139.782 417.28C117.159 417.28 95.1592 410.091 78.7998 395.801C62.4214 381.494 51.7627 360.124 51.7627 331.92V225.52C51.7628 197.316 62.4216 175.947 78.7998 161.64C95.1592 147.349 117.159 140.16 139.782 140.16C162.405 140.16 184.406 147.349 200.766 161.64C217.144 175.947 227.803 197.316 227.803 225.52V331.92Z" fill="#4270ED"/>
<path d="M269 98C269 88.0589 260.941 80 251 80C241.059 80 233 88.0589 233 98C233 107.941 241.059 116 251 116V146C224.49 146 203 124.51 203 98C203 71.4903 224.49 50 251 50C277.51 50 299 71.4903 299 98C299 124.51 277.51 146 251 146V116C260.941 116 269 107.941 269 98Z" fill="#4270ED"/>
</svg>
